<?xml version="1.0" encoding="UTF-8"?>
<!DOCTYPE svg PUBLIC "-//W3C//DTD SVG 1.1//EN" "http://www.w3.org/Graphics/SVG/1.1/DTD/svg11.dtd">
<!-- Creator: CorelDRAW 2018 (64-Bit) -->
<svg xmlns="http://www.w3.org/2000/svg" xml:space="preserve" width="90.311mm" height="30.6726mm" version="1.1" style="shape-rendering:geometricPrecision; text-rendering:geometricPrecision; image-rendering:optimizeQuality; fill-rule:evenodd; clip-rule:evenodd"
viewBox="0 0 9031.1 3067.26"
 xmlns:xlink="http://www.w3.org/1999/xlink">
 <defs>
  <style type="text/css">
   <![CDATA[
    .fil1 {fill:none}
    .fil0 {fill:white}
   ]]>
  </style>
 </defs>
 <g id="Layer_x0020_1">
  <metadata id="CorelCorpID_0Corel-Layer"/>
  <g id="_1576849770704">
   <path class="fil0" d="M1733.63 2392.8c-203.49,77.91 -437.74,73.63 -646.22,-12.66l-29.9 -12.38c-259.54,-107.42 -416.13,-326.85 -487.44,-499.58 -137.86,-333.91 -71.82,-740.86 222.88,-1021.44 88.48,-84.23 186.23,-144.9 275.83,-182.32 204.38,-85.35 473.58,-103.86 698.2,-10.9 171.67,71.06 270.85,150.75 379.26,277.48 42.96,50.23 80.15,106.94 107.89,157.96 27.56,50.72 20.44,43.51 39.39,85.04 15.7,34.41 9.18,55.34 63.29,77.88 54.23,22.59 107.96,2.42 129.35,-49.12 22.59,-54.46 -5.41,-88.16 -19.29,-120.92 -40.58,-95.76 -134.18,-222.31 -208.79,-303.03 -114.35,-123.72 -293.03,-249.32 -469.96,-322.55l-59.81 -24.76c-230.78,-95.52 -484.15,-101.54 -706.6,-38.22 -18.6,5.29 -32.74,9.08 -49.8,15.72 -40.47,15.75 -82.89,29.64 -125.85,49.49l-118.19 62.62c-127.35,74.74 -240.18,168.54 -348.52,273.03 -13.38,12.91 -26.76,30.66 -43.59,35.98 -19.33,6.12 -42.81,-0.41 -56.36,-19.35 -26.58,-37.17 11.7,-76.5 37.1,-107.96 225.2,-279.01 476.16,-462.4 808.24,-566.2 127.07,-39.72 275.11,-65.47 437.24,-58.98 376.7,15.09 722.75,146.65 986.71,420.74 91.71,95.24 139.19,168.13 201.11,274.74 8.85,15.24 15.45,34.88 38.49,43.92 43.3,17 86.69,-29.32 66.64,-69.48 -7.66,-15.36 -18.93,-33.02 -29.07,-48.75 -59.29,-92 -138.48,-191.6 -221.3,-268.63 -165.56,-153.97 -269.45,-225.53 -492.58,-317.87 -310.14,-128.36 -710.74,-149.88 -1019.49,-48.06 -54.46,17.96 -133.78,44.98 -185.13,69.45 -106.82,50.92 -190.06,98 -287.62,170.06 -181.33,133.93 -381.47,354.07 -475.96,582.36l-23.62 57.09c-85.04,205.46 -123.88,435.87 -119.89,631.98 3,146.9 24.97,272.79 65.25,407.57 39.17,131.04 96.28,249.49 168.27,367.2 44.88,73.38 99.43,150.69 164.3,222.38 376.31,415.83 955.38,575.09 1491.2,457.07 75.82,-16.7 196.29,-55.26 267.3,-88.69 68.28,-32.14 94.01,-42.3 165.56,-84.12 177.68,-103.84 306.07,-222.48 439.82,-395.04 41.14,-53.08 90.3,-123 124.17,-182.99 18.56,-32.86 0.13,-75.98 -39.03,-79.13 -48.9,-3.95 -55,44.01 -71.63,71.44 -70.58,116.43 -220.57,185.61 -357.08,96.85 -162.89,-105.91 -129.66,-291.96 -44.95,-446.45 11.14,-20.3 27.02,-42.55 35.37,-62.71 30.85,-74.55 -38.72,-137.52 -102.72,-126.72 -210.14,35.44 -49.88,460.87 -572.47,660.96z"/>
   <path class="fil0" d="M2481.74 1359.24c-74.72,-15.47 -159.07,24.79 -177.87,116.23 -15.04,73.11 28.01,158.09 117.8,175.95 72.04,14.33 156.01,-27.28 174.92,-116.67 15.03,-71.07 -26.13,-157.13 -114.85,-175.51z"/>
   <path class="fil0" d="M611.24 2359.6c1126.78,59.76 1931.24,-837.4 1170.34,-903.85 -210.92,-18.42 -680.57,50.45 -793.46,-103.5 -38.69,-131.44 484.97,-281.04 582.7,-314.37 267.54,-91.24 455.99,-141.33 384.52,-497.56 -98.88,146.94 -77.4,158.68 -341.78,260.72 -145.08,56 -302.32,103.63 -459.71,163 -148.79,56.12 -296.72,132.74 -376.38,227.75 -115.71,138.01 -129.83,328 47.47,422.28 135.85,72.24 333.86,83.55 500.19,107.09 203.25,28.77 377.71,98.87 159.21,280.86 -258.68,215.46 -765.77,291.97 -873.1,357.58z"/>
   <path class="fil0" d="M3163.12 2181.07c-86.3,0 -166.97,-24.92 -241.71,-74.74 -74.73,-50.42 -127.82,-115.07 -159.85,-193.67 -8.01,-20.46 -8.01,-40.32 0,-59.9 8.9,-19.87 22.84,-33.81 42.71,-41.82 20.16,-8.01 40.33,-7.71 59.91,0.89 19.57,8.6 33.51,22.84 41.81,42.41 20.17,50.42 53.98,91.65 101.43,123.38 48.34,32.03 99.95,48.04 155.7,48.04 65.55,0 121,-20.76 166.67,-61.69 46.57,-41.81 69.7,-91.63 69.7,-149.47 0,-62.57 -20.17,-109.14 -59.91,-139.09 -32.62,-24.32 -98.46,-50.12 -198.11,-77.4 -113.59,-31.15 -194.85,-64.66 -243.49,-99.95 -84.52,-60.8 -126.63,-148.29 -126.63,-262.47 0,-100.53 37.96,-186.84 114.47,-258.9 77.11,-71.77 169.64,-107.66 277.3,-107.66 90.75,0 170.83,26.1 239.63,78.29 69.69,52.2 117.15,121.6 142.65,208.49 5.64,20.76 3.86,40.63 -6.23,59.02 -10.37,19.28 -26.09,31.74 -46.85,37.37 -20.17,5.93 -40.05,3.85 -59.02,-5.93 -18.68,-10.68 -31.14,-26.1 -37.37,-47.16 -15.72,-53.68 -44.19,-96.38 -86.01,-127.52 -41.82,-31.44 -90.75,-46.86 -146.8,-46.86 -64.95,0 -120.41,20.46 -166.97,61.69 -46.26,41.52 -69.4,91.34 -69.4,149.17 0,61.09 19.87,106.17 59.91,135.83 32.02,23.73 96.98,49.23 195.44,76.22 114.78,32.03 196.63,65.54 245.86,100.84 84.82,61.39 126.93,150.06 126.93,266.02 0,100.54 -38.26,187.14 -114.77,258.91 -76.22,71.77 -168.75,107.66 -277,107.66z"/>
   <path class="fil0" d="M4146.55 1364.31c-88.09,0 -163.42,31.73 -225.99,95.49 -62.58,64.35 -93.72,141.76 -93.72,232.22 0,89.56 31.14,166.67 93.72,231.03 62.57,63.76 137.9,95.49 225.99,95.49 107.65,0 193.66,-44.78 258.01,-134.64 12.76,-18.09 30.26,-28.77 53.09,-32.03 5.04,-1.19 10.08,-1.78 14.53,-1.78 16.31,0 31.43,5.04 45.38,15.42 18.39,12.75 29.35,30.55 32.91,53.09 1.2,5.34 1.78,10.08 1.78,14.83 0,16.31 -5.34,31.43 -15.71,45.08 -96.69,134.94 -226.58,202.56 -389.99,202.56 -133.17,0 -246.75,-47.75 -340.77,-143.25 -94.31,-95.8 -141.46,-210.87 -141.46,-345.8 0,-135.53 47.15,-251.2 141.46,-346.7 94.02,-96.39 207.6,-144.43 340.77,-144.43 163.41,0 293.3,67.62 389.99,202.56 10.37,14.53 15.71,29.65 15.71,45.97 0,4.74 -0.58,9.49 -1.78,14.83 -3.56,21.94 -14.52,39.74 -32.91,53.09 -13.95,10.37 -29.07,15.42 -45.38,15.42 -4.45,0 -9.49,-0.6 -14.53,-1.49 -22.83,-3.56 -40.33,-14.53 -53.09,-33.21 -64.35,-89.27 -150.36,-133.75 -258.01,-133.75z"/>
   <path class="fil0" d="M4744.55 1203.12c22.53,0 41.52,8.31 57.23,24.33 16.32,15.71 24.32,34.99 24.32,57.53l0 817.65c0,22.54 -8,41.52 -24.32,57.24 -15.71,15.72 -34.7,23.43 -57.23,23.43 -22.84,0 -41.83,-7.71 -57.54,-23.43 -16.01,-15.72 -24.32,-34.7 -24.32,-57.24l0 -817.65c0,-22.54 8.31,-41.82 24.32,-57.53 15.71,-16.02 34.7,-24.33 57.54,-24.33zm0 -330.08c17.19,0 34.1,4.44 50.71,13.34 16.61,9.2 29.65,21.95 39.14,38.85 9.5,16.61 14.24,34.11 14.24,52.2 0,17.79 -4.74,35 -13.94,51.61 -9.19,16.6 -21.94,29.36 -38.55,38.55 -16.61,9.49 -33.81,13.94 -51.6,13.94 -18.1,0 -35.3,-4.45 -51.91,-13.94 -16.3,-9.19 -29.35,-21.95 -38.55,-38.55 -9.19,-16.61 -13.94,-33.82 -13.94,-51.61 0,-18.09 4.75,-35.59 13.94,-52.2 9.2,-16.9 22.25,-29.65 39.15,-38.85 16.6,-8.9 33.81,-13.34 51.31,-13.34z"/>
   <path class="fil0" d="M5748.84 1611.05c-18.39,-71.77 -56.95,-130.78 -115.37,-177.35 -60.21,-46.86 -128.42,-70.28 -204.34,-70.28 -76.51,0 -144.72,23.42 -204.93,70.28 -58.42,46.57 -96.98,105.58 -115.66,177.35l640.3 0zm-319.71 570.02c-136.12,0 -252.38,-47.75 -349.06,-143.25 -45.38,-45.38 -80.38,-96.98 -105.29,-154.81 -26.09,-60.8 -39.14,-124.27 -39.14,-190.4 0,-135.54 48.04,-251.19 144.43,-347.29 45.67,-45.37 98.16,-80.37 157.18,-105.28 60.79,-26.1 124.86,-39.15 191.88,-39.15 135.54,0 251.79,48.04 348.47,144.43 45.08,45.08 80.38,97.28 105.29,156.3 25.8,60.79 38.85,124.56 38.85,190.99 0,22.83 -7.71,41.82 -23.43,57.54 -16.02,16.31 -35.59,24.31 -58.13,24.31l-731.64 0c18.68,70.59 57.53,128.72 116.55,174.68 59.61,46.27 127.53,69.4 204.04,69.4 120.71,0 213.54,-36.77 279.08,-110.32 14.53,-16.91 32.92,-25.8 55.45,-26.99 22.55,-1.19 42.41,5.63 59.02,20.17 16.91,14.82 25.8,33.81 27,56.34 1.18,21.95 -5.65,41.53 -20.77,58.14 -97.28,110.02 -230.43,165.19 -399.78,165.19z"/>
   <path class="fil0" d="M6482.25 1198.22c123.96,0 229.84,48.35 317.92,144.43 88.08,95.5 131.97,211.17 131.97,346.7l0 411.04c0,21.95 -8,40.94 -24.31,57.25 -15.43,15.72 -34.71,23.43 -57.24,23.43 -22.54,0 -41.82,-7.71 -57.24,-23.43 -15.72,-16.31 -23.43,-35.3 -23.43,-57.25l0 -411.04c0,-90.45 -28.17,-167.87 -84.53,-231.92 -56.64,-63.76 -124.55,-95.79 -203.14,-95.79 -80.08,0 -147.99,32.03 -204.34,95.79 -56.05,64.05 -84.23,141.47 -84.23,231.92l0 408.37c0,22.55 -7.71,41.53 -23.43,57.25 -16.31,15.72 -35.3,23.43 -57.24,23.43 -22.83,0 -42.11,-7.71 -58.42,-23.43 -15.43,-15.72 -23.43,-34.7 -23.43,-57.25l0 -817.64c0,-22.54 8,-41.82 23.43,-57.24 16.31,-16.32 35.59,-24.62 58.42,-24.62 21.94,0 40.93,8.3 57.24,24.62 15.72,15.42 23.43,34.7 23.43,57.24l0 32.03c83.34,-75.92 179.73,-113.89 288.57,-113.89z"/>
   <path class="fil0" d="M7538.62 1200.89c22.54,0 41.82,8.3 57.23,24.32 15.73,15.72 23.73,35 23.73,57.54 0,22.54 -8,41.51 -23.73,57.23 -15.41,16.32 -34.69,24.33 -57.23,24.33l-126.94 0 0 736.08c0,22.55 -7.7,41.52 -23.42,57.25 -15.43,15.72 -34.7,23.43 -57.24,23.43 -22.54,0 -41.82,-7.71 -57.24,-23.43 -16.31,-15.73 -24.61,-34.7 -24.61,-57.25l0 -736.08 -125.75 0c-22.54,0 -42.11,-8.01 -58.42,-24.33 -15.43,-15.72 -23.44,-34.69 -23.44,-57.23 0,-22.54 8.01,-41.82 23.44,-57.54 16.31,-16.02 35.88,-24.32 58.42,-24.32l125.75 0 0 -250.01c0,-22.83 8.3,-41.82 24.61,-57.53 15.42,-16.32 34.7,-24.32 57.24,-24.32 22.54,0 41.81,8 57.24,24.32 15.72,15.71 23.42,34.7 23.42,57.53l0 250.01 126.94 0z"/>
   <path class="fil0" d="M7810.98 1200.89c22.53,0 41.52,8.3 57.23,24.32 16.32,15.72 24.32,35 24.32,57.54l0 817.64c0,22.55 -8,41.52 -24.32,57.25 -15.71,15.72 -34.7,23.43 -57.23,23.43 -22.84,0 -41.82,-7.71 -57.54,-23.43 -16.01,-15.73 -24.32,-34.7 -24.32,-57.25l0 -817.64c0,-22.54 8.31,-41.82 24.32,-57.54 15.72,-16.02 34.7,-24.32 57.54,-24.32zm0 -330.08c17.19,0 34.1,4.44 50.71,13.34 16.61,9.2 29.66,21.95 39.14,38.85 9.5,16.61 14.24,34.11 14.24,52.2 0,17.79 -4.74,35 -13.93,51.6 -9.2,16.61 -21.95,29.36 -38.56,38.56 -16.61,9.49 -33.81,13.94 -51.6,13.94 -18.1,0 -35.3,-4.45 -51.91,-13.94 -16.3,-9.2 -29.35,-21.95 -38.55,-38.56 -9.19,-16.6 -13.94,-33.81 -13.94,-51.6 0,-18.09 4.75,-35.59 13.94,-52.2 9.2,-16.9 22.25,-29.65 39.15,-38.85 16.61,-8.9 33.81,-13.34 51.31,-13.34z"/>
   <path class="fil0" d="M8907.4 1200.89c22.54,0 41.52,8.3 57.24,24.32 15.72,15.72 23.43,35 23.43,57.54l0 817.64c0,22.55 -7.71,41.52 -23.43,57.25 -15.72,15.72 -34.7,23.43 -57.24,23.43 -22.83,0 -41.82,-7.71 -57.53,-23.43 -16.02,-15.73 -24.32,-34.7 -24.32,-57.25l0 -42.7c-90.75,82.15 -197.23,123.38 -318.82,123.38 -133.16,0 -246.75,-47.75 -340.47,-143.25 -94.6,-95.8 -141.76,-210.87 -141.76,-345.8 0,-135.53 47.16,-251.2 141.76,-346.7 93.72,-96.39 207.31,-144.43 340.47,-144.43 121.59,0 228.07,41.23 318.82,123.37l0 -41.51c0,-22.54 8.3,-41.82 24.32,-57.54 15.71,-16.02 34.7,-24.32 57.53,-24.32zm-400.67 817.65c88.08,0 163.41,-31.73 225.99,-95.49 61.98,-64.36 92.83,-141.47 92.83,-231.03 0,-90.46 -30.85,-167.87 -92.83,-232.22 -62.58,-63.76 -137.91,-95.49 -225.99,-95.49 -88.08,0 -163.41,31.73 -225.99,95.49 -62.57,64.35 -93.71,141.76 -93.71,232.22 0,89.56 31.14,166.67 93.71,231.03 62.58,63.76 137.91,95.49 225.99,95.49z"/>
   <path class="fil0" d="M3075.29 2764.19c0,6.58 5.07,12.16 12.16,12.16l44.59 0c6.59,0 12.16,-5.58 12.16,-12.16l0 -154.55 132.25 163.16c1.01,1.52 4.06,3.55 9.13,3.55l55.22 0c10.13,0 14.2,-11.15 9.13,-17.74l-141.89 -169.74 132.25 -148.98c6.59,-7.6 1.53,-18.24 -8.1,-18.24l-50.67 0c-4.56,0 -7.6,2.54 -9.63,5.07l-127.69 143.9 0 -136.81c0,-6.58 -5.57,-12.16 -12.16,-12.16l-44.59 0c-7.09,0 -12.16,5.58 -12.16,12.16l0 330.38zm383.32 2.52c0,5.07 4.57,9.64 9.63,9.64l46.11 0c5.57,0 9.63,-4.57 9.63,-9.64l0 -217.87 0.5 0 211.8 232.57 12.17 0c5.07,0 9.62,-4.05 9.62,-9.12l0 -341.01c0,-5.06 -4.55,-9.63 -9.62,-9.63l-46.62 0c-5.57,0 -9.63,4.57 -9.63,9.63l0 209.27 -0.5 0 -210.8 -223.96 -12.66 0c-5.06,0 -9.63,4.05 -9.63,9.12l0 341zm419.3 -167.2c0,101.34 80.57,181.9 181.9,181.9 101.35,0 182.42,-80.56 182.42,-181.9 0,-101.35 -81.07,-182.92 -182.42,-182.92 -101.33,0 -181.9,81.57 -181.9,182.92zm65.87 0c0,-63.85 52.19,-117.05 116.03,-117.05 63.85,0 116.55,53.2 116.55,117.05 0,63.84 -52.7,116.03 -116.55,116.03 -63.84,0 -116.03,-52.19 -116.03,-116.03zm479.6 174.81c1.02,4.05 5.07,7.09 9.12,7.09l8.11 0c5.07,0 7.09,-2.53 8.61,-5.57l89.69 -229.54 2.53 0 90.71 229.54c1,3.04 4.05,5.57 8.61,5.57l8.1 0c4.06,0 8.11,-3.04 9.13,-7.09l95.76 -340.51c2.02,-7.09 -2.03,-12.16 -9.12,-12.16l-46.62 0c-4.05,0 -8.1,3.55 -9.12,7.1l-51.68 202.17 -2.03 0 -81.07 -208.76c-1.01,-3.04 -3.55,-5.57 -8.61,-5.57l-9.12 0c-5.07,0 -7.61,2.53 -8.62,5.57l-80.56 208.76 -2.03 0 -52.7 -202.17c-1.01,-3.55 -5.06,-7.1 -9.12,-7.1l-46.62 0c-7.09,0 -11.14,5.07 -9.12,12.16l95.77 340.51zm442.61 -7.61c0,5.07 4.05,9.64 9.62,9.64l185.46 0c5.57,0 9.62,-4.57 9.62,-9.64l0 -41.54c0,-5.07 -4.05,-9.63 -9.62,-9.63l-129.21 0 0 -284.26c0,-5.06 -4.57,-9.63 -9.63,-9.63l-46.62 0c-5.57,0 -9.62,4.57 -9.62,9.63l0 335.43zm308.84 0c0,5.07 4.05,9.64 9.62,9.64l206.23 0c5.57,0 9.63,-4.57 9.63,-9.64l0 -41.54c0,-5.07 -4.06,-9.63 -9.63,-9.63l-149.98 0 0 -88.67 125.15 0c5.07,0 9.63,-4.05 9.63,-9.63l0 -42.06c0,-5.06 -4.56,-9.63 -9.63,-9.63l-125.15 0 0 -83.09 149.98 0c5.57,0 9.63,-4.56 9.63,-9.63l0 -41.55c0,-5.06 -4.06,-9.63 -9.63,-9.63l-206.23 0c-5.57,0 -9.62,4.57 -9.62,9.63l0 335.43zm350.89 0c0,5.07 4.05,9.64 9.12,9.64l120.09 0c97.79,0 177.85,-79.56 177.85,-177.86 0,-97.28 -80.06,-176.84 -177.85,-176.84l-120.09 0c-5.07,0 -9.12,4.57 -9.12,9.63l0 335.43zm65.37 -52.18l0 -231.57 57.76 0c65.87,0 114,49.66 114,115.53 0,66.38 -48.13,116.04 -114,116.04l-57.76 0zm336.19 -115.02c0,101.34 81.07,181.4 181.9,181.4 73.48,0 125.67,-32.94 125.67,-32.94 2.02,-1.52 4.05,-4.05 4.05,-8.11l0 -129.71c0,-5.07 -4.05,-9.63 -9.11,-9.63l-97.29 0c-5.58,0 -9.63,4.05 -9.63,9.63l0 40.02c0,5.07 4.05,9.13 9.63,9.13l40.53 0 0 43.07c-10.13,4.05 -31.92,12.66 -60.29,12.66 -63.85,0 -114.02,-53.2 -114.02,-116.03 0,-63.34 50.17,-117.56 113.51,-117.56 27.87,0 54.72,10.14 76.51,29.4 4.56,4.05 9.12,4.05 13.18,0l31.41 -32.94c4.05,-4.05 3.54,-10.13 -0.51,-14.19 -34.45,-29.39 -78.03,-47.12 -123.64,-47.12 -100.83,0 -181.9,81.57 -181.9,182.92zm439.06 167.2c0,5.07 4.06,9.64 9.63,9.64l206.23 0c5.57,0 9.63,-4.57 9.63,-9.64l0 -41.54c0,-5.07 -4.06,-9.63 -9.63,-9.63l-149.99 0 0 -88.67 125.15 0c5.07,0 9.63,-4.05 9.63,-9.63l0 -42.06c0,-5.06 -4.56,-9.63 -9.63,-9.63l-125.15 0 0 -83.09 149.99 0c5.57,0 9.63,-4.56 9.63,-9.63l0 -41.55c0,-5.06 -4.06,-9.63 -9.63,-9.63l-206.23 0c-5.57,0 -9.63,4.57 -9.63,9.63l0 335.43zm462.87 0c0,5.07 4.06,9.64 9.63,9.64l46.62 0c5.06,0 9.62,-4.57 9.62,-9.64l0 -128.19 125.15 0c5.07,0 9.63,-4.56 9.63,-9.63l0 -41.55c0,-5.06 -4.56,-9.62 -9.63,-9.62l-125.15 0 0 -95.26 149.99 0c5.57,0 9.63,-4.56 9.63,-9.63l0 -41.55c0,-5.06 -4.06,-9.63 -9.63,-9.63l-206.23 0c-5.57,0 -9.63,4.57 -9.63,9.63l0 335.43zm313.4 -167.2c0,101.34 80.56,181.9 181.9,181.9 101.35,0 182.42,-80.56 182.42,-181.9 0,-101.35 -81.07,-182.92 -182.42,-182.92 -101.34,0 -181.9,81.57 -181.9,182.92zm65.87 0c0,-63.85 52.19,-117.05 116.03,-117.05 63.85,0 116.55,53.2 116.55,117.05 0,63.84 -52.7,116.03 -116.55,116.03 -63.84,0 -116.03,-52.19 -116.03,-116.03zm417.79 167.2c0,5.07 4.05,9.64 9.62,9.64l46.62 0c5.06,0 9.62,-4.57 9.62,-9.64l0 -129.2 56.25 0 67.39 134.27c1.02,2.03 3.55,4.57 8.1,4.57l53.21 0c8.62,0 12.16,-8.11 8.62,-14.7l-69.42 -128.7c44.08,-17.74 74.99,-55.74 74.99,-102.36 0,-60.3 -49.66,-108.94 -110.47,-108.94l-144.91 0c-5.57,0 -9.62,4.57 -9.62,9.63l0 335.43zm66.37 -183.42l0 -100.83 82.59 0c26.86,0 50.17,22.29 50.17,49.15 0,28.37 -23.31,51.68 -50.17,51.68l-82.59 0zm398.52 193.06l44.09 0c8.1,0 12.66,-5.07 14.69,-10.14l24.83 -54.72 151.5 0 24.83 54.72c3.55,7.09 7.1,10.14 14.69,10.14l44.09 0c7.6,0 11.65,-6.59 8.61,-13.18l-156.06 -341.01c-1.52,-3.04 -3.55,-5.57 -8.62,-5.57l-5.06 0c-4.57,0 -7.09,2.53 -8.62,5.57l-157.58 341.01c-3.04,6.59 1.02,13.18 8.61,13.18zm108.44 -121.11l49.65 -111.47 1.52 0 50.67 111.47 -101.84 0zm317.96 111.47c0,5.07 4.05,9.64 9.62,9.64l185.46 0c5.57,0 9.62,-4.57 9.62,-9.64l0 -41.54c0,-5.07 -4.05,-9.63 -9.62,-9.63l-129.21 0 0 -284.26c0,-5.06 -4.56,-9.63 -9.63,-9.63l-46.62 0c-5.57,0 -9.62,4.57 -9.62,9.63l0 335.43zm308.84 0c0,5.07 4.05,9.64 9.62,9.64l185.46 0c5.57,0 9.62,-4.57 9.62,-9.64l0 -41.54c0,-5.07 -4.05,-9.63 -9.62,-9.63l-129.21 0 0 -284.26c0,-5.06 -4.56,-9.63 -9.63,-9.63l-46.62 0c-5.57,0 -9.62,4.57 -9.62,9.63l0 335.43z"/>
   <line class="fil1" x1="3458.61" y1="2486.93" x2="8988.07" y2= "2486.93" />
  </g>
 </g>
</svg>
